<mxfile host="Electron" modified="2024-04-10T04:01:51.382Z" agent="Mozilla/5.0 (X11; Linux x86_64) AppleWebKit/537.36 (KHTML, like Gecko) draw.io/24.1.0 Chrome/120.0.6099.109 Electron/28.1.0 Safari/537.36" etag="A_MCcJvvsxjUuChsT-fi" version="24.1.0" type="device">
  <diagram name="Página-1" id="-0-OwX0cJR-1dIrujoul">
    <mxGraphModel dx="3574" dy="1597" grid="0" gridSize="10" guides="1" tooltips="1" connect="1" arrows="1" fold="1" page="0" pageScale="1" pageWidth="827" pageHeight="1169" background="none" math="0" shadow="0">
      <root>
        <mxCell id="0" />
        <mxCell id="1" parent="0" />
        <mxCell id="yZR8awEWsIdqO6TwHlMT-84" value="" style="rounded=0;whiteSpace=wrap;html=1;shadow=0;glass=0;gradientColor=none;strokeColor=#000000;fontFamily=Courier New;fillColor=none;fontSize=15;" parent="1" vertex="1">
          <mxGeometry x="-1433" y="-280" width="1964" height="983" as="geometry" />
        </mxCell>
        <mxCell id="yZR8awEWsIdqO6TwHlMT-61" value="Digital Ocean Region: SFO2" style="sketch=0;outlineConnect=0;gradientColor=none;html=1;whiteSpace=wrap;fontSize=15;fontStyle=0;shape=mxgraph.aws4.group;grIcon=mxgraph.aws4.group_region;strokeColor=#000000;fillColor=none;verticalAlign=top;align=left;spacingLeft=30;fontColor=#000000;dashed=1;rounded=0;fontFamily=Courier New;" parent="1" vertex="1">
          <mxGeometry x="-766" y="-86" width="1263" height="750" as="geometry" />
        </mxCell>
        <mxCell id="yZR8awEWsIdqO6TwHlMT-63" value="Digital Ocean VPC: 10.0.0.0/24" style="sketch=0;outlineConnect=0;gradientColor=none;html=1;whiteSpace=wrap;fontSize=15;fontStyle=0;shape=mxgraph.aws4.group;grIcon=mxgraph.aws4.group_vpc;strokeColor=#000000;fillColor=none;verticalAlign=top;align=left;spacingLeft=30;fontColor=#000000;dashed=1;rounded=0;fontFamily=Courier New;" parent="1" vertex="1">
          <mxGeometry x="-713" y="-11" width="1178" height="634" as="geometry" />
        </mxCell>
        <mxCell id="yZR8awEWsIdqO6TwHlMT-83" value="" style="shape=image;verticalLabelPosition=bottom;labelBackgroundColor=default;verticalAlign=top;aspect=fixed;imageAspect=0;image=data:image/svg+xml,PHN2ZyB4bWxucz0iaHR0cDovL3d3dy53My5vcmcvMjAwMC9zdmciIGZpbGw9Im5vbmUiIHZpZXdCb3g9IjAgMCA2NCA2NCIgaGVpZ2h0PSI4MDBweCIgd2lkdGg9IjgwMHB4Ij48cGF0aCBmaWxsPSIjNDA0MEIyIiBkPSJNMzguMDYgMjYuMTUxdjExLjQ3M0w0OCAzMS44OTFWMjAuNDA2bC05Ljk0IDUuNzQ1eiIvPjxwYXRoIGZpbGw9IiM1QzRFRTUiIGQ9Im0yNy4wMyAyMC40MDYgOS45NCA1Ljc0NXYxMS40NzNsLTkuOTQtNS43NFYyMC40MDd6TTE2IDE0djExLjQ3OWw5Ljk0IDUuNzR2LTExLjQ4TDE2IDE0em0xMS4wMyAzMC42MjQgOS45NCA1Ljc0di0xMS40OGwtOS45NC01LjczOXYxMS40OHoiLz48L3N2Zz4=;clipPath=inset(19.67% 23.33% 16% 23%);rounded=0;fontFamily=Courier New;imageBorder=none;imageBackground=none;shadow=0;fontSize=15;" parent="1" vertex="1">
          <mxGeometry x="-966" y="-239.3" width="144.57" height="173.3" as="geometry" />
        </mxCell>
        <mxCell id="yZR8awEWsIdqO6TwHlMT-85" value="&amp;nbsp; &amp;nbsp; &amp;nbsp;Projeto API RESTful (main)&amp;nbsp; &amp;nbsp; &amp;nbsp;" style="text;html=1;strokeColor=none;fillColor=none;align=center;verticalAlign=middle;whiteSpace=wrap;rounded=0;fontStyle=1;fontSize=50;fontFamily=Courier New;labelBackgroundColor=#6666FF;fontColor=#FFFFFF;labelBorderColor=none;" parent="1" vertex="1">
          <mxGeometry x="-559" y="-278" width="1090" height="67" as="geometry" />
        </mxCell>
        <mxCell id="yZR8awEWsIdqO6TwHlMT-102" style="edgeStyle=orthogonalEdgeStyle;rounded=1;orthogonalLoop=1;jettySize=auto;html=1;fontColor=#000000;dashed=1;strokeColor=#4D4D4D;strokeWidth=2;fontFamily=Courier New;curved=0;fontSize=15;" parent="1" source="yZR8awEWsIdqO6TwHlMT-87" target="yZR8awEWsIdqO6TwHlMT-101" edge="1">
          <mxGeometry relative="1" as="geometry">
            <Array as="points">
              <mxPoint x="-1267" y="416" />
            </Array>
          </mxGeometry>
        </mxCell>
        <mxCell id="yZR8awEWsIdqO6TwHlMT-87" value="User" style="aspect=fixed;sketch=0;html=1;dashed=0;whitespace=wrap;fillColor=#2875E2;strokeColor=#ffffff;points=[[0.005,0.63,0],[0.1,0.2,0],[0.9,0.2,0],[0.5,0,0],[0.995,0.63,0],[0.72,0.99,0],[0.5,1,0],[0.28,0.99,0]];shape=mxgraph.kubernetes.icon2;prIcon=user;labelPosition=left;verticalLabelPosition=middle;align=right;verticalAlign=middle;fontFamily=Courier New;fontSize=15;rounded=0;fontColor=#000000;" parent="1" vertex="1">
          <mxGeometry x="-1322" y="245" width="108.64" height="101.64" as="geometry" />
        </mxCell>
        <mxCell id="yZR8awEWsIdqO6TwHlMT-92" value="" style="group;fontFamily=Courier New;rounded=0;fontColor=#000000;fontSize=15;" parent="1" vertex="1" connectable="0">
          <mxGeometry x="-1271" y="581" width="399" height="47" as="geometry" />
        </mxCell>
        <mxCell id="yZR8awEWsIdqO6TwHlMT-15" value="&lt;font style=&quot;font-size: 15px;&quot;&gt;api.dellabeneta.online&lt;/font&gt;" style="html=1;strokeWidth=1;shadow=0;dashed=0;shape=mxgraph.ios7ui.url;fillColor=#e0e0e0;strokeColor=#c0c0c0;buttonText=;strokeColor2=#222222;fontColor=#000000;fontSize=15;spacingTop=2;align=center;whiteSpace=wrap;rounded=0;fontFamily=Courier New;" parent="yZR8awEWsIdqO6TwHlMT-92" vertex="1">
          <mxGeometry x="62.29184045881129" width="336.70815954118865" height="47" as="geometry" />
        </mxCell>
        <mxCell id="yZR8awEWsIdqO6TwHlMT-57" value="&lt;font style=&quot;font-size: 15px;&quot;&gt;https://&lt;/font&gt;" style="image;aspect=fixed;html=1;points=[];align=center;fontSize=15;image=img/lib/azure2/general/FTP.svg;rounded=0;fontFamily=Courier New;imageBackground=default;fontColor=#000000;" parent="yZR8awEWsIdqO6TwHlMT-92" vertex="1">
          <mxGeometry width="58.56" height="46.85" as="geometry" />
        </mxCell>
        <mxCell id="yZR8awEWsIdqO6TwHlMT-96" value="&lt;h1 style=&quot;font-size: 15px;&quot;&gt;&lt;font style=&quot;font-size: 15px;&quot;&gt;API RESTful&lt;/font&gt;&lt;/h1&gt;&lt;p style=&quot;font-size: 15px;&quot;&gt;&lt;font style=&quot;font-size: 15px;&quot;&gt;&lt;span style=&quot;font-size: 15px; white-space: pre;&quot;&gt;&amp;nbsp;&amp;nbsp;&amp;nbsp;&amp;nbsp;&lt;/span&gt;&lt;font style=&quot;font-size: 15px;&quot;&gt;Ambiente provisionado como IaC, usando a ferramenta Terraform. Esta infraestrutura consiste em um cluster&amp;nbsp; Kubernetes, no DOKS - serviço de Kuberntes gerenciado da Digital Ocean, para posterior deploy de uma aplicação do tipo API RESTful.&lt;/font&gt;&lt;/font&gt;&lt;/p&gt;&lt;p style=&quot;font-size: 15px;&quot;&gt;&lt;font style=&quot;font-size: 15px;&quot;&gt;&lt;span style=&quot;background-color: initial; font-size: 15px;&quot;&gt;Github:&amp;nbsp;&lt;/span&gt;&lt;span style=&quot;background-color: initial; font-size: 15px;&quot;&gt;&lt;font style=&quot;font-size: 15px;&quot;&gt;github.com/dellabeneta/ntconsult-iac-api&lt;/font&gt;&lt;/span&gt;&lt;/font&gt;&lt;br style=&quot;font-size: 15px;&quot;&gt;&lt;/p&gt;&lt;p style=&quot;font-size: 15px;&quot;&gt;&lt;font style=&quot;font-size: 15px;&quot;&gt;&lt;span style=&quot;font-size: 15px;&quot;&gt;&lt;span style=&quot;white-space: pre; font-size: 15px;&quot;&gt;&amp;nbsp;&amp;nbsp;&amp;nbsp;&amp;nbsp;&lt;/span&gt;&lt;/span&gt;&lt;br style=&quot;font-size: 15px;&quot;&gt;&lt;/font&gt;&lt;/p&gt;&lt;div style=&quot;font-size: 15px;&quot;&gt;&lt;br style=&quot;font-size: 15px;&quot;&gt;&lt;/div&gt;&lt;p style=&quot;font-size: 15px;&quot;&gt;&lt;/p&gt;" style="text;html=1;strokeColor=none;fillColor=none;spacing=5;spacingTop=-20;whiteSpace=wrap;overflow=hidden;rounded=0;fontFamily=Courier New;verticalAlign=top;align=left;fontColor=#000000;fontSize=15;" parent="1" vertex="1">
          <mxGeometry x="-1357" y="-21" width="506" height="181" as="geometry" />
        </mxCell>
        <mxCell id="yZR8awEWsIdqO6TwHlMT-101" value="DNS" style="verticalLabelPosition=middle;sketch=0;aspect=fixed;html=1;verticalAlign=middle;strokeColor=none;align=left;outlineConnect=0;shape=mxgraph.citrix.dns_server;labelPosition=right;rounded=0;fontFamily=Courier New;fontColor=#000000;fontSize=15;" parent="1" vertex="1">
          <mxGeometry x="-1091.5" y="370" width="76.5" height="92.5" as="geometry" />
        </mxCell>
        <mxCell id="yZR8awEWsIdqO6TwHlMT-103" style="edgeStyle=orthogonalEdgeStyle;rounded=1;orthogonalLoop=1;jettySize=auto;html=1;entryX=0.324;entryY=-0.035;entryDx=0;entryDy=0;entryPerimeter=0;fontColor=#000000;dashed=1;strokeColor=#4D4D4D;strokeWidth=2;fontFamily=Courier New;curved=0;fontSize=15;" parent="1" source="yZR8awEWsIdqO6TwHlMT-101" target="yZR8awEWsIdqO6TwHlMT-15" edge="1">
          <mxGeometry relative="1" as="geometry">
            <Array as="points">
              <mxPoint x="-1072" y="522" />
              <mxPoint x="-1100" y="522" />
            </Array>
          </mxGeometry>
        </mxCell>
        <mxCell id="yZR8awEWsIdqO6TwHlMT-104" style="edgeStyle=orthogonalEdgeStyle;rounded=1;orthogonalLoop=1;jettySize=auto;html=1;fontColor=#000000;strokeColor=#009900;strokeWidth=2;dashed=1;fontFamily=Courier New;curved=0;fontSize=15;" parent="1" source="yZR8awEWsIdqO6TwHlMT-101" target="yZR8awEWsIdqO6TwHlMT-87" edge="1">
          <mxGeometry relative="1" as="geometry">
            <Array as="points">
              <mxPoint x="-1053" y="335" />
              <mxPoint x="-1159" y="335" />
              <mxPoint x="-1159" y="292" />
            </Array>
          </mxGeometry>
        </mxCell>
        <mxCell id="yZR8awEWsIdqO6TwHlMT-105" style="edgeStyle=orthogonalEdgeStyle;rounded=1;orthogonalLoop=1;jettySize=auto;html=1;fontColor=#000000;strokeColor=#009900;strokeWidth=2;dashed=1;fontFamily=Courier New;curved=0;fontSize=15;" parent="1" source="yZR8awEWsIdqO6TwHlMT-15" target="yZR8awEWsIdqO6TwHlMT-101" edge="1">
          <mxGeometry relative="1" as="geometry">
            <Array as="points">
              <mxPoint x="-1028" y="522" />
              <mxPoint x="-1053" y="522" />
            </Array>
          </mxGeometry>
        </mxCell>
        <mxCell id="dYA1yyI_5aB2j3IZ9VFg-20" style="edgeStyle=orthogonalEdgeStyle;rounded=0;orthogonalLoop=1;jettySize=auto;html=1;curved=1;strokeColor=#6666FF;dashed=1;dashPattern=8 8;fontColor=#000000;fontFamily=Courier New;fontSize=15;" parent="1" source="yZR8awEWsIdqO6TwHlMT-185" target="dYA1yyI_5aB2j3IZ9VFg-18" edge="1">
          <mxGeometry relative="1" as="geometry" />
        </mxCell>
        <mxCell id="dYA1yyI_5aB2j3IZ9VFg-1" value="" style="shape=image;verticalLabelPosition=bottom;labelBackgroundColor=#FCFCFC;verticalAlign=top;aspect=fixed;imageAspect=0;image=data:image/png,iVBORw0KGgoAAAANSUhEUgAAAgAAAAGjCAMAAABtxl0VAAAArlBMVEUAAAAAAAAAAAAAAAAAAAAAAAAAAAAAAAAAAAAAAAAAAAAAAAAAAAAAAAAAAAAAAAAAAAAAAAAAAAAAAAAAAAAAAAAAAAAAAAAAAAAAAAAAAAAAAAAAAAAAAAAAAAAAAAAAAAAAAAAAAAAAAAAAAAAAAAAAAAAAAAAAAAAAAAAAAAAAAAAAAAAAAAAAAAAAAAAAAAAAAAAAAAAAAAAAAAAAAAAAAAAAAAAAAAAAAABeyFOlAAAAOXRSTlMABAgLDxQYHSEkKi82O0BFSE5SV1tfZGpvc3h9gIOHjJCTmJugpaqwtLm/xcvO0tfa3eHk6Ozx9fl0zHYlAAAeHUlEQVR42uzbiXKiQBSF4Qu4BkXUKBoX3HBBTcyowHn/F5uaJDVJHOkOSk8Ver9H+A9FUQ0Q+28Mu9vv1E2DS9ylnBvg3X496z1W85zkrpivOBFs50OnVtK4zT0oHxEj9Ft8Ddw8bQuBF5ML3bhHCIUWJ7ptPsSORW50y7QQEh5HumVlyER8C7hlNqTaXCmTSv31/rCdVEnIgdSYW2aQ7kZ4tyqSgAupGdfMnvIWfx1MireA1IhzZk4jwBf7AsV6hlSHe2aMNsJ3vkZxQkjVuWi2FNc4NaAYBcg9cNJMsY/4l03nVSGnc1NlcqWK3eo8DUZTb75YLJerxdybTcaDbrtRMwsaJacNEh3otiC155lSp5VtZ+j5rxGEov1mOe42zBz9WMHHeWuNzhlAyue9UqSZLXe5i5DMcT3pWHmSsw6I49I5HqSmvFo69ErHe45wuRrJ9KKED/PaBlJPPN31Cs3xJsKVciSWX0EkKNEX5Wbf2xwAuSbPd518Y/yCFLySWGUPsa1Ob3SrvwrwYxWe8AqV3jpCOpYkVAshMyGigrMMkQh/I3wpvT47ID0jEikGkHOcNZI68pAXMRpegFR1SWQORTa8ZXKa7YVI2yMJFCMosiABw7RMPig8Zbp7KGCTQBvKrCyKUVtFAMJFlTf/ZLQ3UMMiARcK+RU6IzcHPkz5LvDBHAdQpUoCEyjllcQ/lK34D6I/6j4UskhgCLXCnk7fOCF/NfSd4eyg0tEkgSZU21Xpk+HhRIPuW65/VJvfMUgkF0K5kU4fHl5wKijTHcsPAqj0q62RhAv1nk160woFB813KD8MoFI0MEjK2EG9sE1E+pRfG39l9AIotX2gnzBDQL2ZXv7d3p1oN6qjaxj+MeB5djwncRzP8wz67v/Gzjq9urp3dTlIwggEpecC9q6F39ggCekgMVKVfVb/BrUmFonpIQ4HDz/xy/TXaZ2gltcmYQsk7GTT36W8gWL3ComzT1DMvEn+T86EQbFrSS5IH0qZF4n/6e0O1a5FktNFwvwK/SWKGyh3L5OsGRJ2duhvYA19KMdqJC13QMKW9Bco77X9PS15UMq8S0xEfV/jO+oOEsYqlG2FDeJwdSiUJkSZRYShtB+IRSP0vq+Jq1N25aZQgz3u18v5fLneHv4L91K5A5I3yfTOO1G67Zdfo26zWnIt+gfLKVYcCuUbGthQVnU8RMPfz0atco6i1oYOdpRN1ici4O8mnbJFSuQfMN8AyjgbvOqx7FctUmcJwNwDKFI+4yVsM6iQWm3ooUYZ1PTwgvusZZNq9hXy/ON6Nvl4/5wud3dzC/CzPkNot2ndohh8QtJ19lamf3Ab4y0zE4LRvnbhzesUj6IPGdfPCj3hvG0YXsE6lDm5BULavNkUlwUk7FoW/aTw+UBo9zpljrNFKI9JieJTgbhdnQI5Yw/hbPOUOe4eYRy7OVLF7s63u+Xkt5P9lhB17RBXfo4wPizKnPwRIWwapE7/gV/YZTMdtio2lSHq2yERjStkPZqUPYUz5C0rpI61xJ9uV4h5tEiQs4ScXYGyp3hR/PHLm+MFxyKJG8q+wJI9hQtkrSukVAsv2Doko+0D4t8sGZQ/Q9KuTortEd46R3IaPsTsi5RB7glybh1SrYTwNjmS1WAQMc1RBrlH+be4lXtDaHtb2RrTEmWQvYOUTYli8I6wbnkKYwwB75Q91hoy7m8Ui3nEr5nwrcF3ouyZQcbcpXjsENKYQnLvf+W5UmNIuLcoLneEs7eUrjMZUca8QcIqT3Gxk3hdZ/X3nStU8yHM7yc+56f43J8iAw+zKUsKdwg7VShGbYTi5+kVU3A1KENyewhbxJv+UMFZE3x5Bp4PypA5RLEBxesbYbCi8keiDWXHAKIeDYrZBmGs1N96PCgzqkxibjVuF4TRimEKqkAZ4V4haG1T3CyGEDwrhnuPFmXECoJmFsWuhDAWcfyPh1m6AdB2/qOBMN7odSdwfFMmVBiEsB4loY8wCnE8fmwoC3JHCGFvlIgJQrhRBLoZnhCUv8Csrc8NCt86ljFov98sWZRyNQhhLUrIASF8UgRyEMAum+9Ru2JTStlnzT9/OiOEPkXhCnH33ayTy+4PQIcSs0cIrUT+1/e3rA4B9ik5s+Q27FhD1jeli3UEdF/70kQIlaT2H/qgVBnJTKym6S6wTFFYQF6VUqTgQ8DK0vNnSn0AS8hbZ24O4GBTwjosob/DNeQxh1KjAQG3AiWudoakRnLr0evZugP0q6QB6211g4yuqnEAvrdsTQL2SBd2pTWcbs4MIt6TW4nQppRwHuCbkW6sYqP/uY/lML8ywqhmaR/AfY601Illnq6DMNwMPQJ6xdTOYDlJTUR7WXoRtKNtvbFMBhyyfHpQiYFrRtrywTGll7mZPkNwAa6LTdo6guNKL+shjE9KhTIDVy3V/dYSeiGll5kvgC/S2Ej971cBodSzcgdwsdM9iu079JoPhFLIyiNAg3TmKF/EYD8QBqM0KDDwzElvB/Dc7SReSj9lZBDw4ZLepuAaKxgoz8ZyANsDT5801wKXX1AwCsjzlY1pwKOlfcRM6RYBFYZwBpQC5yzsfrNROZRtHRBSi/TXzMQPWR98XiHmHwCgTBn422Fl0l+eqZvObiO0HGmvCJ4ZpcFG2T4RVR9hXbPwDOgXKAXye1WHOpfuCG1F2rPu4JhSCjTuqmbnSleE1yXttQR22NTfmIEjbM+VG8K75kh7qwx8AbgbSFjasZ2Y3iTtuQzBWIF0V7tByqFEokYML+hn4fF5TrobMkjyeiSksIGgrV1uDafrM8N/XZuUAru0j2Q4K3CEPdzI6nvSr55ZxXrvc3l4sPu6l6MUKKZ957PqBaGwL5eCtY4QtqO0GqV8FqDPEJY/KdCPrPYeEuqUVgcEO5PWvvEKtm7b9Ezp/QoZa0qrUrpnM9/xKn/VL9NvnObnEXJYObO/AL6T+j1t+bzd/L3fabXa3eFkdYa8L0qtXaqfARfQws2htMqDo0Yay/nQQotSq5fqW8AKtLCg9Foi2Jh01jA/AC+yPAQrks5q0EGdQukWKXn1dI9v5aGBdwol793KlLiPlC9pPiBxm/A/vo+K9g+BedJbD0k7Oy+swnlUKVkOS/kMh7VHwlYUSv4OAPCSLaD8mfpD0EoeEjYIFe4GAJDkr0C5v7yDp0TaayNhrPbSayb3EsXP7cxvEHCmFPhCwq7uS4uwrnmKV3m0YxAzoRSwdkjY+rW9zg8Oxac6OUNcg9Kg8EDCRq/tdb+xKB6VyRUy/BylQhMJY/XXljDNKQaF0QmSNpQSn0jYPU+irEkSJzBZnQ2DtBGlhLXFjx6Iw9YiMfkNnmBNUqn4ec/2LueUv+MHS7vHEIMPEtK84ymvRMo01gjHsyg16gzPsD4RVa+IQZP43Dl+cnJIiVzviLA2lCJjPHGp0v9z11DvZhNHbviIe0dpe3hTN82p/+YQK5f+re8nPiRs929x7yjsjB8KvtR05d7wOzai/yptodqegow8cPgVipQ9euA1DqVKjeGfbjX6Te8BtZj14u41J5uiY/XveNGZUqaPf9i49D/cKYNSeU4AcR4z3TrjZUvSFX+IjY3pifISKrmcAOL70S1vEYEhpU55yQAAmyo9V11BmQcF2ULAzaUI2BOGKDQohdzWYNDOJzJvsKQgh9heMGjdEA2XsqiR0OLwW0yvGOWXiMiVMqkPaYfh7fW1gS0GEVebXtJ5ICoryqQJpLDdqERUZ+A5uRSs6as/YcyZIzrvlEkriDtO247gLiq7PPE0meqNBmpX88Ir1xEiHrvZsO7Qf60RaGIRX5tBwJbCGjFEqUCZ5IFrVHbof7lX/MxrkZCeyr88Z41IPSiT8uCr0BNVhp8cipEeO3eyKITyGdHaUCbVwGfLHaozzZGwuarNRVseIvZJmfQGrpvUTgrem+wSdhWH2w0RIf8wHzXzlE3v4Xd8dC7407FMUvJXBWsxrSkiclm9d8oWZdgC4c/HrPj4X3ObJFV8cD1skpFbIgKn+aDmUObtwDUWHkX0e4qGIkckwd7iRd5mXHfo73AH15vo98e5QmEso/0KcHZ4hbceVujvYb+2GD63xX8tHQrFuUT5IODsEd7hs27RX6X44iyoPcO/+X2Vj6Jn9Z8/2w6K9NfJg8ujQNX5HcB5ovgQ4jYJsXcIZ9t36a/kgedAPG7RoZfkTuDZie8zIu80KtDfaqnFUsg6uCokYAl5/rxGf7E6eD4oBnPwfKs5zvgydOhfzFdAotPg7gMcnq1gcdOubdHfzjki0COnycq0HnE0GORs62RwT5gcUCysMzj2FKxwh5Sd+fh/6ezwo42ly3G9KFOQ3B4yjk3zuf+DW+99LA8e/rB1KC771+5G55Bw75nf/mfc6tt4vr3hF29kabSz1YUCdCGOTR3zWQf515Gvq/X0zaY47cFRi2aD3GPVfMRaaoNjGsUW2Wxsvv01ZV1Cv5v1AVEn8+evrwE4qi8flvidM5dZX7YXbmGudYAYr2MucqqPPT7RUyOIuVTMJdZbBWGObCsxCNm65grrbh9mZdgaQhbm7j/9t4Gr8FucfJmrmwIuk96s1zpDxLu5uKmwkR4MHEDEyFzadOjKfpD23fz9Z4nLJN/RHpvf/2zZyt0EuB74FuayZuc5oCp/Ns7ODP+mSElqD3rHA9fNjP+kykXm63wELmam/9LlW2I6IHcDV89c0mwtC3HkdhlbmSuaMq7Elt0HcwOQQSfhTfur4DKLv9NnhkBzmZXgc3M506cr+oKQ44Pjbn4AsrcqxKdfeuYJIJMsX3BV0A4ce3MxU2kndl9XBI95+zOTQ0F90XnAjbmU6dQXm9s9gMOMAadUXWhsr2jGALMqLzQbMABHzVzJbG5d54kdPLk11zG1DgLTQTZDsLa5jlnduKwssqPMzbwGkl4TgfnAL/n9ZLIvX3sbTWbLzXa73ayX0/d+s2xlcF1gV2DOECVSozrj+55OPj+G3VYtTz/qz0LK01NWfby540/+ftqy6U/l2YuqpE6HPyHsItiOFHmDDG8/6xbomRVCKj/P8oGfsVXLivzI6LfkTjL7ELgF6KsLQNqul1MbQGMHnms/l6IASvxdgz8QLK9RAMCtqzCA0gYiLs30BOAg0JI/CrAjrQIA1q6qAPq+7PY4+gdAjDvJ4yHQSLcAcCkpCcBaQNzOSUsAD96fdwnBqtoFgFtBQQC5DWTs7ZQEcEaQI/ce8EH6BYCjHX0AS8hZpSSAA4JcuGsBljoGgO/IAxhB1iAdAewQ5MYtf6hlAKhFHECFQZZfSEUAWwTxuNNFNT0D2EYcwA7ylqkIYI0gPu8hgOX0DADVSANoIoxSGgJYcQJwEehImgYwjTSALZ64jOv5nOVWe2uGp6ZZCKCKQAtdA7hFGUART3xa9EtpjWceVuoDYNRBoHHcAbDWf7R74/kRPylFGMAQf5oITKs3MxDAAIE6sQdAvyt9c/9lKzyxcPisgBulR05gZc1XBm4CPxGomlAA/F+KcXAAc5Jw449/5D386ZCCADYI4tEcgdzkA6AvPPMdXQA5kSNVvn58Rir0ntk+n85+ppTcOMCd+w2hQQB5hicW0QWQF5kErUiewjzVZJe9PYJcOYFckgqAP5y9jC6AAp5o834n2OO8r+sfwAlBznRAkJ0WASwVfwO4eMJ/o9/NL4ftajH9GPY6zWo5b1MAjQK4IciBLgiy1iMAxfcAFsMz+55LPPoH4CPIlh4IstQigJ3qp4AznmO7j6aT7gByCLQiD0FmOgTgMjzRiTCAJQKcZr1SegMoINCcfASZ6hDAJ54pRRhADxz3Zb+YzgCqCPRFDEG+NAigzvDElSIMIM/Ad5k2c+kLoIlAI04Ak8QDsHo+nplwAgDjmIRYD+YtO3bKAughUE/rAKxKb3bDc2VOAHInX1QgyptXUxXAJwI1tbsHwPKX9YkF3b1GGgDNIG7fTlEACwSq0kODpwB5rBxxAM4VEo7N1ASwQ6AC3RFkoWkAHxRxAFTxIGPppiSAB4Iw0mEkUN7OijwAaviQcW+kIgAXgc6kwVyAvLNL0QdA9QdksH4aAqgh0IY3XXzWMYBzgVQEQMUDpAxTEEAPgWa8q+dpGMDWJTUBkDVmkPGmfwBTBBpxDwpwdAuAjS1SFQBRaQEJfln7AHYI1OIOFJQ1C2BZIlIYAFFlwSBsr3sAls99tWXASUSnAG6TEpHiAIgK7zeI6moeQAWBmMU9WWyoTQC7cZWIYgiAyGrOHhBy1jyAPgId+dOF39oE4M1rEQcQxGpMThDQ1DuAOQIt+AsGdjr9BOyb4gHMcxwW8RTevrkRzPUO4CLw/e4jiJfAq2Gd4crHcwtbOACKhNueHhHgoXUARZFzYI4IVEpkOtiZMDy1zSkIgKM03OFHZZ0D6CGYI7AWopPQeoAmw1MrS0EAXKWpj+c6OgewRKCLyIqBr7gD4NU7UREAX3GHp0YaB2B5CLQQuRXbxx0A9+b+TU0ATrFSb3UH71/z1fYwoD/ktpwe9QugIbQJcBmBmJNUAHmPMwAbUQCD1fZw8fjvQ7gPPDHVOIAvBCsLjRa2kgqARnjuYEUawLfoO5FjPPGlcQBXBHqInSrzlVgAuSueG0cQAKezsui46oe+AdQQbC12uOQpsQCoi+f8fJQBtETv7Vw80dc3gG/BnS67CFZKLADriOe+ogwgjyfOluBbVg1tA7AeglsklRBsmFgA1MJzrCAZgPx4aVfw3+tqG0AHwa6CC0exSy4A2uK5WZQBTPHEoyi0uOJE2gawQbCZ8GxaMbkAqniOlXgB7PoC8gGvz53y9LshnphoG0AJHG3Rk8UwSi4AWgq8sLB6cb9Z64ZnLlWB89cq2gbwhWC+Tb+UEeyYYAAlhufK0QVAH3iKfZfol/KK8/OoWwCOJ3Eg+B3BqrEHwH+WWUUYQN7HD/aTXrPe7E32eK6tbQAjmdVsCwSbJRIA58OpRhEA5+syvYtC7TuCMVfigcFzkguAPvDcJsIA3AdCqWobwBAcG/oHhyHYMMEAnDueq0cXAHURxoR0DcC+g+NN6pHxYsUfAPchZRdhALSEvJ2lbQDv4PDsJ9c4QCfBAKwLnmtGGIBzgqxrnnQNoOBLLmbNg+MQfwD8W5R9hAFQ8QY5txJpG8AcPA363RYcrQQDIM5DWCQBUOUBGccCaRtAHTxn6Y3yDkkG0MBzJyvCAKh0hriFTdoGkDvJv9nuMnB04g+Af5P6FmUAZM8g6N4h0jeAD/D4rvzrVWcrwQAqAU8n0QVAVNtCgP/pkMYB1BhCvM/UBM8g/gD4Y5W9aAMgqi18BLuOXSKNA3Au4KrQH6wbODw3wQCKDE/dchEHQOR05jf85DytW0RaB7AA1ybcD8c3RcwuPUNPFUrP5YgoXworR88V2++L3Y391v9x+dEukDi39ESeVBuCr05PFBh4avSXcUqVar3RaNSrJYfSocFCT2EtwXOyyNBb6QG+Fj1VA9e7ucJ6c8+vzGHvwcOq5hrrzN6/tKlJB1wn21xlfVkbCNjRj07g+jaXWVu5NTh4t/Jd8HXMhU7357+gn1kXcHllc6nT/Pn7BQrQBd/JMRdbQ+4OQt4piHUC39qMBuineIKQc44CtSHgy1xv3VTvEFMnjh0EDMwV10vXh5gZ8dQA8yiQMtYXBN1d4lpAAGuZy66NwhaimoILivn8hrnwmmg/IGpKIkYQ4TfNpdeB/Q1hxxyJsE4Qwdrm6ievfoYwv0JiahDCeub6J8z5hoQuiZpCzIf5CBLVvkHCt0RYV4hZmsnh5JQ3kLHLkbg6BB1L5oNIhvPFZF9klTGBIM8MCSXBHj0gxauQlNwRombmZyBuVv8GOaxBkio+RF3q5iOJU65/gaweSetB3LdD6rh7IQOSttmHttuul7OPQbtik6jBnmtIfPbwBmkjCmEBcfceKdOHkAtJeyACl+WwakV0WzUlnsLHA/ImFIZ9hIR9gxTZQ0xdVQB83rJjxxFAbcEQwjT8OyYyNjVSoQxBc4UB8PmzquIAnN4eoXxTWE0GKdsmRW8CQb6tNAC+TU1hAPW5j3CmFN4Akk59h6Jl3SGqm3AAwKqoKoAuwvqiV0why5/XKUotCNsmHgD8gaIAeghpTC+xVpB3nVQpMkuIKyYeALB2tAqgTy/K7RDGfdZ2KAoug7h3DQLAuaRPAH6bXuYcEQ7bl+l1A0i46BAA7mVdArjXKAL5E0Jq0usOkFHXIQDcS3oEcCxSJAqX5AKoQMpciwBwdnUIYGUTKS5AfQATSPFtLQLAWoMAxhSdwimhAKw75HT1CADDpAN4NClK+WMyAbQgaatJAKyUbADbAkXL2SUSwAqyinoEgE2SAbB3i6JmrxIIwGWQ9a5JAGgkF8ClRgpY0/gDGEDaRZcAdokF8G2TGgMWdwAHyKtrEgBqyQRwbZAyzUe8AVQQwlyXABaJBPBlk0KlY6wBfCEE39YkAN+JP4BDjdSy5zEGYD0QRleTAPAWdwDewCLlul5sAbQRylaXAJbxBsC+XYpDaR9XACuEU4wygGHrl3anO/xcHBhEPWINYFOhmFhjFksAeYZw3iUCkD9QJFf/ukNMJb4ADg2KUWUfRwBDhHRRFcAvub4HEb24Ajh3KGZ9T30AR4RVVxwAUeEAAdN4Ajh3LYpdfq46gCpCmysLQO6c4W0cAZy6FiWiulMbwBShebbyAKjkgeumPoBdi5LTOSsMIPdAAA+BuuoDoCH4LLUBsFWdEmX1rsoC6CDIu4cg2xgCsG7gyqsMwJsUKXFW76wogDWClJcIVFQfAL2Dq6IugEPfJi1YnR0nAAWDABfqItB7DAFUwFVTFIA3q5JGqgsWeQAjBJnwlopcYgiAPPA0lASw7dqkmfzoEnEAJ96D/haB6jEEcABPM/oAjqMCaan+7UUYQBVBHhb3JnweQwDb2AM4vZdJX7nWwosqgG/uUosSbygg5gDU/wQc3yuku1xzepUNQH4QAB3+jwS6sf4EqL8JLJUoJcqDtfdqAB0EYY7A5dyqD8BT8RiYCVZ1sLi8EsBGYMl9HcGKGjwGFrIbAF++OS5TOAWGIH2hBWPvqgP4VDEUbHbB/H8job+rOQJdFAfgPMBzIxOAgkGAg+CSwbraAL7AtTUBhFIT+253GALNlQbQAt/UBBDKt+BHsuENBSgMoOGDr2cCCCPnCf6w9hGsqy6AAYOAsgkgjDfRfU8LCLZVFUBjBxEPMgGEsUGgpvhQXFFBAHb98wIxCxNAGAUE8nL0Hx8I9h5BAO9v/9btD96/NycGYR0TQBhjBFpKLBy+JPtyqG0CCOMscWd3Q7B6sq+HmwCiHwRgrsQDI+ZJBlAzAYQxk7mzbyKYZye5RYwJIATbk9l/L+cjWDe5AJomAAWDACjJvUG+TSyALZkAwtgi0En2HI1iQgGwigkgjCKCfdLvXHC8JxTAJ5kAwhjL3lnvEOySTAAHywQQygWB7pbk2hGgnkQAjxKZAMKoSz/Xl8ExTyAA1iQTQChzBGtLf2fAs+MPoEsmACWDAL4dYmVWN/YAemQCCKcb4hyOOji2MQfgt8kEoGYQAL1Q24kWYw3gWiUTQEhFcORDHXI/jjOAhUsmgLDeEWxPz3TAcYkvgEuLyAQQ2iXUn7LDwFGPKYDHKEcmgPDq4KjQUxtwzGMJ4DywiUwACgcBLmHPlfFs5QF48zoRmQBeYfshL04RPF21ARy/GhaRCeBFPXAcVj9g4NiqCsA/LEYNh4jIBPCyHdQphg9g9f2nr8nneNBtVlz6FxNAFEpQaKxkhxAiE0B0PqDQxQSgvStUqpsANNeAUnMTgOYWUMqzTQBac3yo1TUBaK0HxbYmAK3toFrRBKCxEpQbmwA09gnlLiYAfVk3qFc3AWiriRjMTADaWiAGnm0CyPIgAF/XBKCpPmKxNQFoaod4FEwAWiojJmMTgJY+EZOLCSDTgwB8NROAhpqIzcwEoKElYuPZJgDtuAzxeTMBpHAQgJ3E3MG1NQFoZw+eZYTLCgsmgPQNAryRGMsD19gEoJkJeJgT4e3kxQSgF+sOni2JegNfzQSglRa4BpE+UMxMAGkbBCiSsC24PNsEkK5BgCOJG4LvzQSgkQG4PiJeXLwxAWjkEPEHcAJfwQSgjQq47pHPLI9NANr4AteMZNTAdzYBpGgQAK3I/4uomQDSMwjg50jKHHwzE4AmVuBakZw2+DzbBJCalQA9kmMz8L2ZALQwAF+eJK3BtzEBpGUQYKfmJZOCCUADFfCNSFYBAsYmAA3UP/gKJG34wdejfxtF+E/ga35wtRL5KP4PZvKxd72kU/cAAAAASUVORK5CYII=;shadow=1;strokeWidth=1;textOpacity=0;fontColor=#000000;perimeterSpacing=0;imageBorder=none;fontSize=15;fontFamily=Courier New;" parent="1" vertex="1">
          <mxGeometry x="-1382" y="-230" width="146.64" height="120" as="geometry" />
        </mxCell>
        <mxCell id="dYA1yyI_5aB2j3IZ9VFg-2" value="Digital Ocean Database Cluster: &quot;mongodb-ntconsult-prd&quot;&lt;div style=&quot;font-size: 15px;&quot;&gt;MongoDB v6.0&lt;/div&gt;" style="sketch=0;outlineConnect=0;gradientColor=none;html=1;whiteSpace=wrap;fontSize=15;fontStyle=0;shape=mxgraph.aws4.group;grIcon=mxgraph.aws4.group_availability_zone;strokeColor=default;fillColor=none;verticalAlign=top;align=left;spacingLeft=30;fontColor=#000000;rounded=0;fontFamily=Courier New;" parent="1" vertex="1">
          <mxGeometry x="-105" y="86" width="540" height="490" as="geometry" />
        </mxCell>
        <mxCell id="dYA1yyI_5aB2j3IZ9VFg-9" value="" style="shape=image;verticalLabelPosition=bottom;labelBackgroundColor=default;verticalAlign=top;aspect=fixed;imageAspect=0;image=data:image/png,iVBORw0KGgoAAAANSUhEUgAAALQAAAGQCAMAAAAwWbqUAAAANlBMVEVHcExjoj9ZljXCv79ioT5wpVJhnz1loERjoj9rq0ejt5XCv7/Cv75ZljZsrEjCv79ioD6Gr27DltVDAAAADXRSTlMAheiEXjrIGKnp/uK1Z4d0iAAAB85JREFUeNrtnItOazsMRCchD6eQbPr/P3tVUR0LaA/i+GZkS3t9wdJobGcjUWyiCOKRWg8oPRLCISN3RGOMmRCMvsacHbEoN2lBLOQmPWuwdqwxo0WdbtLBou7jLt1CBX2XngVRqOsuHSnqodJhopa1VDpHcVbpKFGn9Vk6x3C+M++kGN3QpG/kDtd0WcqMEXVvSxnzD9358V6KSgvcUtVZk3a+9sr6wlRy9+6s0krzu56fS8/k3VmlXdda1o/SuTp3Vmm/w9jWQ6bRmu+s0krrjp4bT5h+rWX9KK00pzkr06u1rOdMszXfeU2f1rJ+Lz3Fwe1+zvRoXdavpBXx5fxc2seTr66fmO6s67BIz+LgG/Yh05t1W0bpWcFGllk6V/risErzn9d1WaX5D9U+zNL8Z8hYNmlF+ENol56JP4R26Vl8DKHyPn8mV/oQ2pOeudMLbZeejVZoez0UIRTamDR/GMcW6VlZ34T2eii50wttT3o2/razS89E23b2eiiFUA5D0sxa97FVejZaOez1UBK/HHbpWQnlMNSDVGtZ1qT5j5C6GNKzEN4chnoQCpKWNWl+QeoyS/MLImZpfkHKMkvzCzLM0vyCpGWV5hekL7M0vyDClp6Vv+7s0hlWGl96JvO6M0vzZ3EQpRWxB82XntX+9OdLN/td4UvPYg+aL527OWi+9Ez2oPnSs9uD5kuLPWi+9Kz2oPnSYg+aLz0rPWiVZl6YQZe2R10WXdoe9XAgPQsxaJXmRt3o0vao66JL26MWurR9gfRFl7ZHnfjS9qiHH2kx7DubNONdLZ6kxTCGBGnT12LiS9u/Focv6cy7hipNueXiTbqxxlClKQem8KXtW6/5k56d0g6Vpmy95FE629vBl551+5JW5qSMYlr0pO2jOHwmPYu9HfykG6EdmjRhFBs9afuq7stt0nn7u0OTJoxi85v0FHs7+NKz722H1oPQj8RP2r6qB13a3o+66PWw96MsetL2fghf2t6PRa+HvR910ZO29yPxpe39EL60vR/Lv7QQKr3m7n4UvrS9H8KXtvdjRJDO9rc0X3pWe6X50gmAkvjS9qPY+NL2pbc2MDZIF/tp4SedoJQo0hlK4kvbS9340vZSjzDSyX4P+dJN5zCOtJY6BZKuuCNxpLXULZC04M4KI63npceR1kmscaT1vJQ40jqJKY60TqLEkdZJHKGkp268GNJ6E3scaV0fNY60ro8STFoAIAWTbsGkdX1INOkOoEWTrgBGNOkCYEWTTkAPJy1APaUZ0g0o4aRzROkJpLWL933XJcVLukJOaUo9Ctq+pE/pqSS0ePVIEZOWiEnLmTRLOuKebhEvYouZdIqYdDqT5khH/HLJKBGTrvGkc0Tphh5RGqc0S3pElG7hpAWQU5okncJJJ6Cc0iTpGk66AD2iNMJJVwAjonSLJt0BSDRpAEjBpDMAlFN6v3QDgBpMWgCgB5NOuDEiSrdY0gU3JJZ0xY0US7rjRgklnRFQugE3eihpwQehpBM+GJGkCz6QSNIVH6RI0rhTAkln3KkR/+OsB0o6ATvXx9g6h0CLk3QH7kgY6Yw/lDD1EJWuYaSTSvcw9ahQRpSkOxQJIt0AJQWRFkCpAX9KBT2IdAegjBDSGZ+QENIJnyghpAs+0UNId3ymBZBu+EIJIJ3whR5AuuIrzb10xjeKe2nBN7p76YLvNOfSGQ8ozqUF2N+PQWgHIL6lOx5RXUsLHjM8Sxc8JjmWznhCdywteIb4la54RnUrnfGc4VU64TnFq3THc7pT6Ya/kXxKF4AT9dg9hop4lE74O9WjdMcPNH/SAtCi3n8NleYt6QZl+4Eh7Dul+Uo6A8SoGftOaZ6Szh3MqDcEvT/qDUHv39WcoBVxIK1BM6PeEPT+qElBK30sM6ygleRBOuOXDAfSBQppFnlBK2KXtgdNj3rDO3r/LG74YDHMIkdaoPAKsuGu7J/FDVO4/y5yp1ApJmn7FPILYn90gF8Q+xSCXxD6FCrCl9YVzS/IO70c9hNz5ZfD/ga58Mth/zPIYS8HvyCHqRx2ClE6QaHvveth/MSyM/5B+v1fnCsUK5UknaAQa63Sy7DtyLVW6at529lp+6UrTNgfIReVNmxo0jCq9IVY6OeUrdINe0i/kj6sQ8hfIccvpSt20dtvpN8NQ0hYIWZpgR37Crkex3E1DCF7hai0YQjJ1ip9sTnzF99FpQ3PUdriU+nDsDjY1iptc+a/+I4by/DsJx8Zlb5anPlH5nrcuBiOCtlapQ+LM9/68iH9bjiEZGuVvjpxVur4YQ611AZnYtbHHYMzPevrcWcZZpCctUpfDM40a53DO4abwrZW6WVwJl/04w8XwxuJ/OY7lGV4P1Otr4dy8eWspG/Sz6NuHU4oX+fwadQCP9TxVVq5GtYG0fr4zDLUmbP6tNLKu9bZG/JQWrNO8Ej5XmntdS5QHBb7eMBbh1d606A/0+EYeRz0C1xTHgX9Cue8xQlaeQkYNGqgoJXXOEErL4ag/fSjIgDHF6CEWXpvQLxSvyACNaI0DHPoZVN3BJxEIN4kviIGNdDGU0JKv8bZeMpbROmXU5pEPaVZhJR+PaVJvJ3SJF5O6VP6OfWUJtFPaRanNIvXU/qUPqU9Sb+d0iTpV0T8dEEYqkaNQNSXu3cHgnmHktaa/P/b4z8tLRCuoeaAMAAAAABJRU5ErkJggg==;fontColor=#000000;fontFamily=Courier New;fontSize=15;" parent="1" vertex="1">
          <mxGeometry x="356" y="438" width="57.08" height="126.85" as="geometry" />
        </mxCell>
        <mxCell id="dYA1yyI_5aB2j3IZ9VFg-18" value="&lt;div style=&quot;font-size: 15px; margin: 0px 0px 0px 40px; border: none; padding: 0px;&quot;&gt;Primary Node&lt;br style=&quot;font-size: 15px;&quot;&gt;Size: s-2vcpu-4g&lt;/div&gt;" style="image;aspect=fixed;html=1;points=[];align=center;fontSize=15;image=img/lib/azure2/databases/Managed_Database.svg;verticalAlign=top;spacingRight=82;spacingTop=2;fontColor=#000000;labelBackgroundColor=none;fontFamily=Courier New;" parent="1" vertex="1">
          <mxGeometry x="109" y="264" width="124.31" height="117" as="geometry" />
        </mxCell>
        <mxCell id="yZR8awEWsIdqO6TwHlMT-74" value="Digital Ocean DOKS: &quot;doks-ntconsulkt-prd&quot;&lt;div style=&quot;font-size: 15px;&quot;&gt;Kubernetes v1.29.1&lt;/div&gt;" style="sketch=0;outlineConnect=0;gradientColor=none;html=1;whiteSpace=wrap;fontSize=15;fontStyle=0;shape=mxgraph.aws4.group;grIcon=mxgraph.aws4.group_availability_zone;strokeColor=default;fillColor=none;verticalAlign=top;align=left;spacingLeft=30;fontColor=#000000;rounded=0;fontFamily=Courier New;" parent="1" vertex="1">
          <mxGeometry x="-665" y="86" width="545" height="489" as="geometry" />
        </mxCell>
        <mxCell id="yZR8awEWsIdqO6TwHlMT-198" style="orthogonalLoop=1;jettySize=auto;html=1;strokeColor=#333333;entryX=0.1;entryY=0.2;entryDx=0;entryDy=0;entryPerimeter=0;strokeWidth=1;exitX=0.876;exitY=0.789;exitDx=0;exitDy=0;exitPerimeter=0;fontColor=#000000;fontFamily=Courier New;fontSize=15;" parent="1" source="yZR8awEWsIdqO6TwHlMT-185" target="yZR8awEWsIdqO6TwHlMT-187" edge="1">
          <mxGeometry relative="1" as="geometry" />
        </mxCell>
        <mxCell id="yZR8awEWsIdqO6TwHlMT-185" value="&lt;blockquote style=&quot;margin: 0px 0px 0px 40px; border: none; padding: 0px; font-size: 15px;&quot;&gt;&lt;blockquote style=&quot;margin: 0px 0px 0px 40px; border: none; padding: 0px; font-size: 15px;&quot;&gt;&lt;blockquote style=&quot;margin: 0px 0px 0px 40px; border: none; padding: 0px; font-size: 15px;&quot;&gt;&lt;blockquote style=&quot;margin: 0px 0px 0px 40px; border: none; padding: 0px; font-size: 15px;&quot;&gt;&lt;blockquote style=&quot;margin: 0px 0px 0px 40px; border: none; padding: 0px; font-size: 15px;&quot;&gt;&lt;blockquote style=&quot;margin: 0px 0px 0px 40px; border: none; padding: 0px; font-size: 15px;&quot;&gt;&lt;blockquote style=&quot;margin: 0px 0px 0px 40px; border: none; padding: 0px; font-size: 15px;&quot;&gt;&lt;span style=&quot;font-size: 15px;&quot;&gt;Auto Scaling: 2-4&lt;/span&gt;&lt;/blockquote&gt;&lt;blockquote style=&quot;margin: 0px 0px 0px 40px; border: none; padding: 0px; font-size: 15px;&quot;&gt;&lt;span style=&quot;font-size: 15px;&quot;&gt;Size: s-2vcpu-4g&lt;/span&gt;&lt;/blockquote&gt;&lt;/blockquote&gt;&lt;/blockquote&gt;&lt;/blockquote&gt;&lt;/blockquote&gt;&lt;/blockquote&gt;&lt;/blockquote&gt;" style="aspect=fixed;sketch=0;html=1;dashed=0;whitespace=wrap;fillColor=#2875E2;strokeColor=#ffffff;points=[[0.005,0.63,0],[0.1,0.2,0],[0.9,0.2,0],[0.5,0,0],[0.995,0.63,0],[0.72,0.99,0],[0.5,1,0],[0.28,0.99,0]];shape=mxgraph.kubernetes.icon2;kubernetesLabel=1;prIcon=node;align=center;horizontal=1;verticalAlign=middle;spacingLeft=0;rounded=0;rotation=0;fontStyle=0;fontFamily=Courier New;fontSize=15;spacingRight=276;labelPosition=center;verticalLabelPosition=top;spacingTop=61;fontColor=#000000;" parent="1" vertex="1">
          <mxGeometry x="-417" y="284" width="103.46" height="99.32" as="geometry" />
        </mxCell>
        <mxCell id="yZR8awEWsIdqO6TwHlMT-186" value="" style="aspect=fixed;sketch=0;html=1;dashed=0;whitespace=wrap;fillColor=#2875E2;strokeColor=#ffffff;points=[[0.005,0.63,0],[0.1,0.2,0],[0.9,0.2,0],[0.5,0,0],[0.995,0.63,0],[0.72,0.99,0],[0.5,1,0],[0.28,0.99,0]];shape=mxgraph.kubernetes.icon2;kubernetesLabel=1;prIcon=pod;rotation=0;fontFamily=Courier New;fontColor=#000000;fontSize=15;" parent="1" vertex="1">
          <mxGeometry x="-380" y="433.54" width="70" height="67.2" as="geometry" />
        </mxCell>
        <mxCell id="yZR8awEWsIdqO6TwHlMT-187" value="" style="aspect=fixed;sketch=0;html=1;dashed=0;whitespace=wrap;fillColor=#2875E2;strokeColor=#ffffff;points=[[0.005,0.63,0],[0.1,0.2,0],[0.9,0.2,0],[0.5,0,0],[0.995,0.63,0],[0.72,0.99,0],[0.5,1,0],[0.28,0.99,0]];shape=mxgraph.kubernetes.icon2;kubernetesLabel=1;prIcon=pod;rotation=0;fontFamily=Courier New;fontColor=#000000;fontSize=15;" parent="1" vertex="1">
          <mxGeometry x="-248" y="383.32" width="70" height="67.2" as="geometry" />
        </mxCell>
        <mxCell id="yZR8awEWsIdqO6TwHlMT-188" value="" style="aspect=fixed;sketch=0;html=1;dashed=0;whitespace=wrap;fillColor=#2875E2;strokeColor=#ffffff;points=[[0.005,0.63,0],[0.1,0.2,0],[0.9,0.2,0],[0.5,0,0],[0.995,0.63,0],[0.72,0.99,0],[0.5,1,0],[0.28,0.99,0]];shape=mxgraph.kubernetes.icon2;kubernetesLabel=1;prIcon=pod;rotation=0;fontFamily=Courier New;fontColor=#000000;fontSize=15;" parent="1" vertex="1">
          <mxGeometry x="-537" y="395.32" width="70" height="67.2" as="geometry" />
        </mxCell>
        <mxCell id="yZR8awEWsIdqO6TwHlMT-199" style="orthogonalLoop=1;jettySize=auto;html=1;entryX=0.5;entryY=0;entryDx=0;entryDy=0;entryPerimeter=0;strokeColor=#333333;strokeWidth=1;exitX=0.5;exitY=1;exitDx=0;exitDy=0;exitPerimeter=0;fontColor=#000000;fontFamily=Courier New;fontSize=15;" parent="1" source="yZR8awEWsIdqO6TwHlMT-185" target="yZR8awEWsIdqO6TwHlMT-186" edge="1">
          <mxGeometry relative="1" as="geometry">
            <mxPoint x="-367" y="349.32" as="sourcePoint" />
          </mxGeometry>
        </mxCell>
        <mxCell id="yZR8awEWsIdqO6TwHlMT-200" style="orthogonalLoop=1;jettySize=auto;html=1;entryX=0.9;entryY=0.2;entryDx=0;entryDy=0;entryPerimeter=0;strokeColor=#333333;strokeWidth=1;exitX=0.202;exitY=0.875;exitDx=0;exitDy=0;exitPerimeter=0;fontColor=#000000;fontFamily=Courier New;fontSize=15;" parent="1" source="yZR8awEWsIdqO6TwHlMT-185" target="yZR8awEWsIdqO6TwHlMT-188" edge="1">
          <mxGeometry relative="1" as="geometry" />
        </mxCell>
        <mxCell id="dYA1yyI_5aB2j3IZ9VFg-30" value="" style="rounded=0;whiteSpace=wrap;html=1;strokeColor=none;fillColor=none;fontColor=#000000;fontFamily=Courier New;fontSize=15;" parent="1" vertex="1">
          <mxGeometry x="-769" y="212" width="112" height="168" as="geometry" />
        </mxCell>
        <mxCell id="dYA1yyI_5aB2j3IZ9VFg-31" style="edgeStyle=orthogonalEdgeStyle;rounded=0;orthogonalLoop=1;jettySize=auto;html=1;entryX=0.5;entryY=0;entryDx=0;entryDy=0;entryPerimeter=0;strokeColor=#6666FF;dashed=1;dashPattern=8 8;curved=1;fontColor=#000000;fontFamily=Courier New;fontSize=15;" parent="1" source="yZR8awEWsIdqO6TwHlMT-87" edge="1">
          <mxGeometry relative="1" as="geometry">
            <mxPoint x="-794.7100000000005" y="293.72" as="targetPoint" />
            <Array as="points">
              <mxPoint x="-1268" y="222" />
              <mxPoint x="-1026" y="222" />
              <mxPoint x="-1026" y="294" />
            </Array>
          </mxGeometry>
        </mxCell>
        <mxCell id="dYA1yyI_5aB2j3IZ9VFg-36" value="" style="fillColor=#28A8E0;verticalLabelPosition=bottom;sketch=0;html=1;strokeColor=#ffffff;verticalAlign=top;align=center;points=[[0.145,0.145,0],[0.5,0,0],[0.855,0.145,0],[1,0.5,0],[0.855,0.855,0],[0.5,1,0],[0.145,0.855,0],[0,0.5,0]];pointerEvents=1;shape=mxgraph.cisco_safe.compositeIcon;bgIcon=ellipse;resIcon=mxgraph.cisco_safe.capability.load_balancer;fontColor=#000000;fontFamily=Courier New;fontSize=15;" parent="1" vertex="1">
          <mxGeometry x="-787" y="223" width="145" height="148" as="geometry" />
        </mxCell>
        <mxCell id="dYA1yyI_5aB2j3IZ9VFg-37" style="edgeStyle=orthogonalEdgeStyle;rounded=0;orthogonalLoop=1;jettySize=auto;html=1;entryX=0.082;entryY=0.356;entryDx=0;entryDy=0;entryPerimeter=0;curved=1;strokeColor=#6666FF;dashed=1;dashPattern=8 8;fontColor=#000000;fontFamily=Courier New;fontSize=15;" parent="1" source="dYA1yyI_5aB2j3IZ9VFg-36" target="yZR8awEWsIdqO6TwHlMT-185" edge="1">
          <mxGeometry relative="1" as="geometry" />
        </mxCell>
        <mxCell id="dYA1yyI_5aB2j3IZ9VFg-45" value="" style="editableCssRules=.*;html=1;shape=image;verticalLabelPosition=bottom;labelBackgroundColor=#ffffff;verticalAlign=top;aspect=fixed;imageAspect=0;image=data:image/svg+xml,PHN2ZyB4bWxucz0iaHR0cDovL3d3dy53My5vcmcvMjAwMC9zdmciIHhtbG5zOnY9Imh0dHBzOi8vdmVjdGEuaW8vbmFubyIgd2lkdGg9IjcwMi44NDYzMTM0NzY1NjI1IiBoZWlnaHQ9IjY4MS45NjcxMDIwNTA3ODEyIiB2aWV3Qm94PSIxMC4wMDEwMjYxNTM1NjQ0NTMgMTAuMDAwOTMzNjQ3MTU1NzYyIDcwMi44NDYzMTM0NzY1NjI1IDY4MS45NjcxMDIwNTA3ODEyIj4mI3hhOwk8c3R5bGUgdHlwZT0idGV4dC9jc3MiPi5zdDAgeyBmaWxsOiByZ2IoMjU1LCAyNTUsIDI1NSk7IH0gLnN0MSB7IGZpbGw6IHJnYigyNiwgMjYsIDI2KTsgfSA8L3N0eWxlPiYjeGE7CTxwYXRoIGNsYXNzPSJzdDAiIGQ9Ik0zNTguOTg3IDEwLjA2Yy02LjIxMy4zMTMtMTIuMzAxIDEuODU0LTE3LjkwNiA0LjUzMUw5Ni43MzcgMTMxLjM0MmMtMTIuODExIDYuMTE4LTIyLjExNiAxNy42ODktMjUuMjgxIDMxLjQzOGwtNjAuMjgxIDI2Mi4yNWMtMi44MTIgMTIuMjA3LS41MjQgMjUuMDI0IDYuMzQ0IDM1LjUzMWE0Ni4zNSA0Ni4zNSAwIDAgMCAyLjY1NiAzLjY4OGwxNjkuMTI1IDIxMC4yODFjOC44NjggMTEuMDIyIDIyLjMxMyAxNy40NCAzNi41MzEgMTcuNDM4bDI3MS4yMTktLjA2MmMxNC4yMTIuMDEgMjcuNjU3LTYuMzk2IDM2LjUzMS0xNy40MDZsMTY5LjA2My0yMTAuMzEzYzguODczLTExLjAyOCAxMi4xOTctMjUuNDY0IDkuMDMxLTM5LjIxOWwtNjAuMzc1LTI2Mi4yNWMtMy4xNjUtMTMuNzQ4LTEyLjQ3LTI1LjMxOS0yNS4yODEtMzEuNDM3TDM4MS42NDMgMTQuNTkyYy03LjA1LTMuMzY4LTE0Ljg0MS00LjkyNi0yMi42NTYtNC41MzF6Ii8+JiN4YTsJPHBhdGggY2xhc3M9InN0MSBzdDIiIGQ9Ik0zNjEuNDA4IDk5LjMwOGMtOC4wNzcuMDAxLTE0LjYyNiA3LjI3Ni0xNC42MjUgMTYuMjUgMCAuMTM4LjAyOC4yNjkuMDMxLjQwNi0uMDEyIDEuMjE5LS4wNzEgMi42ODgtLjAzMSAzLjc1LjE5MyA1LjE3NiAxLjMyMSA5LjEzNyAyIDEzLjkwNiAxLjIzIDEwLjIwNyAyLjI2MSAxOC42NjcgMS42MjUgMjYuNTMxLS42MTkgMi45NjUtMi44MDMgNS42NzctNC43NSA3LjU2M2wtLjM0NCA2LjE4OGMtOC43NzcuNzI3LTE3LjYxMiAyLjA1OS0yNi40MzcgNC4wNjMtMzcuOTc1IDguNjIyLTcwLjY3IDI4LjE4My05NS41NjIgNTQuNTk0LTEuNjE1LTEuMTAyLTQuNDQxLTMuMTI5LTUuMjgxLTMuNzUtMi42MTEuMzUzLTUuMjUgMS4xNTgtOC42ODctLjg0NC02LjU0NS00LjQwNi0xMi41MDYtMTAuNDg3LTE5LjcxOS0xNy44MTItMy4zMDUtMy41MDQtNS42OTgtNi44NDEtOS42MjUtMTAuMjE5LS44OTItLjc2Ny0yLjI1My0xLjgwNS0zLjI1LTIuNTk0LTMuMDctMi40NDgtNi42OTEtMy43MjQtMTAuMTg3LTMuODQ0LTQuNDk2LS4xNTQtOC44MjQgMS42MDQtMTEuNjU2IDUuMTU2LTUuMDM1IDYuMzE1LTMuNDIzIDE1Ljk2OCAzLjU5NCAyMS41NjMuMDcxLjA1Ny4xNDcuMTAxLjIxOS4xNTYuOTY0Ljc4MiAyLjE0NSAxLjc4MyAzLjAzMSAyLjQzOCA0LjE2NyAzLjA3NyA3Ljk3MyA0LjY1MSAxMi4xMjUgNy4wOTQgOC43NDcgNS40MDIgMTUuOTk4IDkuODgxIDIxLjc1IDE1LjI4MSAyLjI0NiAyLjM5NCAyLjYzOSA2LjYxMyAyLjkzOCA4LjQzOGw0LjY4OCA0LjE4OGMtMjUuMDkzIDM3Ljc2NC0zNi43MDcgODQuNDA5LTI5Ljg0NCAxMzEuOTM4bC02LjEyNSAxLjc4MWMtMS42MTQgMi4wODUtMy44OTUgNS4zNjUtNi4yODEgNi4zNDQtNy41MjUgMi4zNy0xNS45OTQgMy4yNDEtMjYuMjE5IDQuMzEzLTQuOC4zOTktOC45NDIuMTYxLTE0LjAzMSAxLjEyNS0xLjEyLjIxMi0yLjY4MS42MTktMy45MDYuOTA2LS4wNDMuMDA5LS4wODIuMDIyLS4xMjUuMDMxLS4wNjcuMDE1LS4xNTUuMDQ4LS4yMTkuMDYzLTguNjIgMi4wODMtMTQuMTU4IDEwLjAwNi0xMi4zNzUgMTcuODEzczEwLjIwMyAxMi41NTcgMTguODc1IDEwLjY4OGMuMDYzLS4wMTQuMTU0LS4wMTcuMjE5LS4wMzEuMDk4LS4wMjIuMTg0LS4wNy4yODEtLjA5NCAxLjIwOS0uMjY1IDIuNzI0LS41NjEgMy43ODEtLjg0NCA1LjAwMy0xLjM0IDguNjI3LTMuMzA4IDEzLjEyNS01LjAzMSA5LjY3Ny0zLjQ3MSAxNy42OTItNi4zNyAyNS41LTcuNSAzLjI2MS0uMjU1IDYuNjk3IDIuMDEyIDguNDA2IDIuOTY5bDYuMzc1LTEuMDk0YzE0LjY3IDQ1LjQ4MyA0NS40MTQgODIuMjQ1IDg0LjM0NCAxMDUuMzEybC0yLjY1NiA2LjM3NWMuOTU3IDIuNDc1IDIuMDEzIDUuODI1IDEuMyA4LjI2OS0yLjgzOSA3LjM2MS03LjcwMSAxNS4xMzEtMTMuMjM4IDIzLjc5My0yLjY4MSA0LjAwMi01LjQyNSA3LjEwOC03Ljg0NCAxMS42ODgtLjU3OSAxLjA5Ni0xLjMxNiAyLjc3OS0xLjg3NSAzLjkzOC0zLjc1OSA4LjA0Mi0xLjAwMiAxNy4zMDUgNi4yMTkgMjAuNzgxIDcuMjY2IDMuNDk4IDE2LjI4NC0uMTkxIDIwLjE4Ny04LjI1LjAwNi0uMDExLjAyNi0uMDIuMDMxLS4wMzFzLS4wMDQtLjAyMyAwLS4wMzFjLjU1Ni0xLjE0MyAxLjM0NC0yLjY0NCAxLjgxMy0zLjcxOSAyLjA3Mi00Ljc0NyAyLjc2Mi04LjgxNSA0LjIxOS0xMy40MDYgMy44Ny05LjcyIDUuOTk2LTE5LjkxOSAxMS4zMjMtMjYuMjc0IDEuNDU5LTEuNzQgMy44MzctMi40MDkgNi4zMDItMy4wN2wzLjMxMy02YzMzLjkzOCAxMy4wMjcgNzEuOTI3IDE2LjUyMiAxMDkuODc1IDcuOTA2YTE4OS43NyAxODkuNzcgMCAwIDAgMjUuMDk0LTcuNTYybDMuMTI1IDUuNjI1YzIuNTA2LjgxNSA1LjI0IDEuMjM2IDcuNDY5IDQuNTMxIDMuOTg1IDYuODA5IDYuNzExIDE0Ljg2NCAxMC4wMzEgMjQuNTk0IDEuNDU3IDQuNTkxIDIuMTc4IDguNjU5IDQuMjUgMTMuNDA2LjQ3MiAxLjA4MiAxLjI1NiAyLjYwNSAxLjgxMyAzLjc1IDMuODk1IDguMDg1IDEyLjk0MiAxMS43ODcgMjAuMjE5IDguMjgxIDcuMjE5LTMuNDc4IDkuOTgtMTIuNzQgNi4yMTktMjAuNzgxbC0xLjkwNi0zLjkzN2MtMi40MTktNC41OC01LjE2My03LjY1NC03Ljg0NC0xMS42NTYtNS41MzctOC42NjItMTAuMTMtMTUuODU4LTEyLjk2OS0yMy4yMTktMS4xODctMy43OTcuMi02LjE1OCAxLjEyNS04LjYyNS0uNTU0LS42MzUtMS43MzktNC4yMi0yLjQzNy01LjkwNiA0MC40NTctMjMuODg4IDcwLjI5OS02Mi4wMjEgODQuMzEzLTEwNi4wNjIgMS44OTIuMjk3IDUuMTgyLjg3OSA2LjI1IDEuMDk0IDIuMi0xLjQ1MSA0LjIyMi0zLjM0NCA4LjE4OC0zLjAzMSA3LjgwOCAxLjEyOSAxNS44MjMgNC4wMyAyNS41IDcuNSA0LjQ5OCAxLjcyMyA4LjEyMiAzLjcyMyAxMy4xMjUgNS4wNjMgMS4wNTcuMjgzIDIuNTcyLjU0NyAzLjc4MS44MTMuMDk3LjAyNC4xODMuMDcxLjI4MS4wOTQuMDY1LjAxNS4xNTYuMDE3LjIxOS4wMzEgOC42NzIgMS44NjcgMTcuMDk0LTIuODc5IDE4Ljg3NS0xMC42ODdzLTMuNzU0LTE1LjczMi0xMi4zNzUtMTcuODEyYy0xLjI1NC0uMjg1LTMuMDMyLS43NjktNC4yNS0xLTUuMDg5LS45NjQtOS4yMzEtLjcyNi0xNC4wMzEtMS4xMjUtMTAuMjI1LTEuMDcxLTE4LjY5My0xLjk0My0yNi4yMTktNC4zMTItMy4wNjgtMS4xOS01LjI1MS00Ljg0MS02LjMxMy02LjM0NGwtNS45MDYtMS43MTljMy4wNjItMjIuMTU0IDIuMjM3LTQ1LjIxMS0zLjA2Mi02OC4yODEtNS4zNDgtMjMuMjg1LTE0LjgtNDQuNTgxLTI3LjQwNi02My4zNDRsNS4xODgtNC42NTZjLjIzNy0yLjYyNC4wMzMtNS4zNzYgMi43NS04LjI4MSA1Ljc1MS01LjQwMSAxMy4wMDMtOS44NzkgMjEuNzUtMTUuMjgxIDQuMTUyLTIuNDQzIDcuOTktNC4wMTcgMTIuMTU2LTcuMDk0Ljk0Mi0uNjk2IDIuMjI5LTEuNzk4IDMuMjE5LTIuNTk0IDcuMDE1LTUuNTk2IDguNjMxLTE1LjI0OCAzLjU5NC0yMS41NjJzLTE0Ljc5Ny02LjkwOS0yMS44MTItMS4zMTJjLS45OTkuNzkxLTIuMzU0IDEuODIzLTMuMjUgMi41OTQtMy45MjcgMy4zNzgtNi4zNTEgNi43MTQtOS42NTYgMTAuMjE5LTcuMjEyIDcuMzI2LTEzLjE3NCAxMy40MzgtMTkuNzE5IDE3Ljg0NC0yLjgzNiAxLjY1MS02Ljk5IDEuMDgtOC44NzUuOTY5bC01LjU2MiAzLjk2OWMtMzEuNzE5LTMzLjI2MS03NC45MDUtNTQuNTI1LTEyMS40MDYtNTguNjU2bC0uMzQ0LTYuNTMxYy0xLjkwNC0xLjgyMi00LjIwMy0zLjM3Ny00Ljc4MS03LjMxMi0uNjM2LTcuODY0LjQyNi0xNi4zMjUgMS42NTYtMjYuNTMxLjY3OS00Ljc2OSAxLjgwNy04LjczIDItMTMuOTA2LjA0NC0xLjE3Ny0uMDI2LTIuODg0LS4wMzEtNC4xNTYtLjAwMS04Ljk3NC02LjU0OC0xNi4yNTEtMTQuNjI1LTE2LjI1em0tMTguMzEyIDExMy40MzhsLTQuMzQ0IDc2LjcxOS0uMzEyLjE1NmMtLjI5MSA2Ljg2My01Ljk0IDEyLjM0NC0xMi44NzUgMTIuMzQ0YTEyLjgyIDEyLjgyIDAgMCAxLTcuNTk0LTIuNDY5bC0uMTI1LjA2My02Mi45MDYtNDQuNTk0YzE5LjMzNC0xOS4wMTEgNDQuMDYzLTMzLjA2IDcyLjU2Mi0zOS41MzEgNS4yMDYtMS4xODIgMTAuNDEtMi4wNTkgMTUuNTk0LTIuNjg3em0zNi42NTYgMGMzMy4yNzMgNC4wOTIgNjQuMDQ1IDE5LjE1OSA4Ny42MjUgNDIuMjVsLTYyLjUgNDQuMzEzLS4yMTktLjA5NGExMi45MSAxMi45MSAwIDAgMS0xNy42ODctMi4zNzVjLTEuNzcxLTIuMjIxLTIuNzAxLTQuODMyLTIuODEyLTcuNDY5bC0uMDYyLS4wMzF6TTIzMi4xMjYgMjgzLjYybDU3LjQzNyA1MS4zNzUtLjA2Mi4zMTNhMTIuODggMTIuODggMCAwIDEgMS42MjUgMTcuNzUgMTIuODkgMTIuODkgMCAwIDEtNi42ODcgNC40MDZsLS4wNjIuMjUtNzMuNjI1IDIxLjI1Yy0zLjc0Ny0zNC4yNjUgNC4zMjktNjcuNTc0IDIxLjM3NS05NS4zNDR6bTI1OC4xNTYuMDMxYzguNTM0IDEzLjgzMyAxNC45OTcgMjkuMjgyIDE4Ljg0NCA0Ni4wMzEgMy44MDEgMTYuNTQ4IDQuNzU1IDMzLjA2NyAzLjE4OCA0OS4wMzFsLTc0LTIxLjMxMi0uMDYyLS4zMTJjLTYuNjI3LTEuODExLTEwLjY5OS04LjU1Mi05LjE1Ni0xNS4zMTIuNjMyLTIuNzcgMi4xMDItNS4xMTMgNC4wOTQtNi44NDRsLS4wMzEtLjE1NiA1Ny4xMjUtNTEuMTI1em0tMTQwLjY1NiA1NS4zMTNoMjMuNTMxbDE0LjYyNSAxOC4yODEtNS4yNSAyMi44MTMtMjEuMTI1IDEwLjE1Ni0yMS4xODctMTAuMTg3LTUuMjUtMjIuODEyem03NS40MzggNjIuNTYzYTEyLjgzIDEyLjgzIDAgMCAxIDIuOTY5LjIxOWwuMTI1LS4xNTYgNzYuMTU2IDEyLjg3NWMtMTEuMTQ2IDMxLjMxMy0zMi40NzMgNTguNDQtNjAuOTY5IDc2LjU5NGwtMjkuNTYyLTcxLjQwNi4wOTQtLjEyNWMtMi43MTYtNi4zMS4wMDItMTMuNzEgNi4yNS0xNi43MTkgMS42LS43NyAzLjI3MS0xLjE5NyA0LjkzOC0xLjI4MXptLTEyNy45MDYuMzEzYTEyLjkgMTIuOSAwIDAgMSAxMi4zNzUgMTAuMDMxIDEyLjc3IDEyLjc3IDAgMCAxLS43MTkgNy45MzhsLjIxOS4yODEtMjkuMjUgNzAuNjg4Yy0yNy4zNDctMTcuNTQ5LTQ5LjEyOS00My44MjQtNjAuNzgxLTc2LjA2Mmw3NS41LTEyLjgxMi4xMjUuMTU2Yy44NDUtLjE1NSAxLjcwMS0uMjMgMi41MzEtLjIxOXptNjMuNzgxIDMwLjk2OWMyLjAyNC0uMDc0IDQuMDc5LjM0MSA2LjAzMSAxLjI4MSAyLjU2IDEuMjMzIDQuNTM3IDMuMTczIDUuNzgxIDUuNWguMjgxbDM3LjIxOSA2Ny4yNWMtNC44MyAxLjYxOS05Ljc5NiAzLjAwMy0xNC44NzUgNC4xNTYtMjguNDY1IDYuNDYzLTU2LjgzOSA0LjUwNS04Mi41MzEtNC4yNWwzNy4xMjUtNjcuMTI1aC4wNjNhMTIuOTEgMTIuOTEgMCAwIDEgMTAuOTA2LTYuODEyeiIgc3Ryb2tlPSJub25lIiBzdHJva2Utd2lkdGg9Ii4yNSIvPiYjeGE7PC9zdmc+;fontColor=#000000;imageBackground=none;strokeWidth=1;fontFamily=Courier New;fontSize=15;" parent="1" vertex="1">
          <mxGeometry x="-664" y="87" width="22" height="20.9" as="geometry" />
        </mxCell>
        <mxCell id="qSvbsI_cpJO0gbmlnNH6-2" value="" style="strokeWidth=2;html=1;shape=mxgraph.flowchart.database;whiteSpace=wrap;" vertex="1" parent="1">
          <mxGeometry x="-102" y="88" width="19" height="19.38" as="geometry" />
        </mxCell>
      </root>
    </mxGraphModel>
  </diagram>
</mxfile>
